<?xml version="1.0" encoding="UTF-8" standalone="no"?>
<!-- Created with Inkscape (http://www.inkscape.org/) -->
<svg xmlns:dc="http://purl.org/dc/elements/1.1/" xmlns:cc="http://creativecommons.org/ns#" xmlns:rdf="http://www.w3.org/1999/02/22-rdf-syntax-ns#" xmlns:svg="http://www.w3.org/2000/svg" xmlns="http://www.w3.org/2000/svg" xmlns:xlink="http://www.w3.org/1999/xlink" xmlns:sodipodi="http://sodipodi.sourceforge.net/DTD/sodipodi-0.dtd" xmlns:inkscape="http://www.inkscape.org/namespaces/inkscape" width="136" height="136" id="svg3126" version="1.1" inkscape:version="0.48.2 r9819" sodipodi:docname="boton-mail-1.svg">
  <defs id="defs3128">
    <linearGradient id="linearGradient3848">
      <stop style="stop-color:#ff0000;stop-opacity:1;" offset="0" id="stop3850"/>
      <stop style="stop-color:#d10000;stop-opacity:1;" offset="1" id="stop3852"/>
    </linearGradient>
    <linearGradient id="linearGradient2555-8">
      <stop style="stop-color:#ffffff;stop-opacity:1;" offset="0" id="stop2557-2"/>
      <stop style="stop-color:#ffffff;stop-opacity:0;" offset="1" id="stop2559-45"/>
    </linearGradient>
    <linearGradient inkscape:collect="always" xlink:href="#linearGradient2555-1" id="linearGradient3779" gradientUnits="userSpaceOnUse" gradientTransform="matrix(-0.66352054,0,0,0.66186692,90.566026,258.07474)" spreadMethod="pad" x1="-344.15295" y1="274.711" x2="-395.84943" y2="425.39993"/>
    <linearGradient id="linearGradient2555-1">
      <stop style="stop-color:#ffffff;stop-opacity:1;" offset="0" id="stop2557-7"/>
      <stop style="stop-color:#ffffff;stop-opacity:0;" offset="1" id="stop2559-4"/>
    </linearGradient>
    <linearGradient inkscape:collect="always" xlink:href="#linearGradient3827" id="linearGradient3839" gradientUnits="userSpaceOnUse" x1="584.05646" y1="459.54459" x2="584.05646" y2="330.28091"/>
    <linearGradient id="linearGradient3827">
      <stop style="stop-color:#990000;stop-opacity:1;" offset="0" id="stop3829"/>
      <stop style="stop-color:#ff8686;stop-opacity:1;" offset="1" id="stop3831"/>
    </linearGradient>
    <linearGradient gradientTransform="matrix(1.0299282,0,0,1.0299282,-250.78164,125.05648)" y2="330.28091" x2="584.05646" y1="459.54459" x1="584.05646" gradientUnits="userSpaceOnUse" id="linearGradient3862" xlink:href="#linearGradient3827" inkscape:collect="always"/>
    <filter inkscape:collect="always" id="filter3822">
      <feGaussianBlur inkscape:collect="always" stdDeviation="1.92378" id="feGaussianBlur3824"/>
    </filter>
    <filter inkscape:collect="always" id="filter3844" x="-0.092846879" width="1.1856938" y="-0.5655218" height="2.1310436">
      <feGaussianBlur inkscape:collect="always" stdDeviation="4.6794384" id="feGaussianBlur3846"/>
    </filter>
    <linearGradient inkscape:collect="always" xlink:href="#linearGradient3848" id="linearGradient3854" x1="352.11096" y1="594.95032" x2="352.11096" y2="465.36572" gradientUnits="userSpaceOnUse"/>
    <linearGradient inkscape:collect="always" xlink:href="#linearGradient2555-1-3" id="linearGradient3117" gradientUnits="userSpaceOnUse" gradientTransform="matrix(-0.67946259,0,0,0.62779052,68.192644,50.746993)" spreadMethod="pad" x1="-344.15295" y1="274.711" x2="-395.84943" y2="425.39993"/>
    <linearGradient id="linearGradient2555-1-3">
      <stop style="stop-color:#ffffff;stop-opacity:1;" offset="0" id="stop2557-7-1"/>
      <stop style="stop-color:#ffffff;stop-opacity:0;" offset="1" id="stop2559-4-6"/>
    </linearGradient>
    <linearGradient y2="425.39993" x2="-395.84943" y1="274.711" x1="-344.15295" spreadMethod="pad" gradientTransform="matrix(-0.67946259,0,0,0.62779052,83.90693,267.88985)" gradientUnits="userSpaceOnUse" id="linearGradient3983" xlink:href="#linearGradient2555-1-3" inkscape:collect="always"/>
    <linearGradient inkscape:collect="always" xlink:href="#linearGradient4005" id="linearGradient4011" x1="323.20789" y1="270.06821" x2="348.59311" y2="390.5751" gradientUnits="userSpaceOnUse"/>
    <linearGradient id="linearGradient4005">
      <stop style="stop-color:#ffe3e3;stop-opacity:1;" offset="0" id="stop4007"/>
      <stop style="stop-color:#ffffff;stop-opacity:1;" offset="1" id="stop4009"/>
    </linearGradient>
    <linearGradient gradientTransform="translate(-154.56312,208.1143)" y2="390.5751" x2="348.59311" y1="270.06821" x1="323.20789" gradientUnits="userSpaceOnUse" id="linearGradient4028" xlink:href="#linearGradient4005" inkscape:collect="always"/>
    <linearGradient inkscape:collect="always" xlink:href="#linearGradient4005" id="linearGradient3913" x1="348.73022" y1="484.21936" x2="376.75723" y2="626.24066" gradientUnits="userSpaceOnUse"/>
  </defs>
  <sodipodi:namedview id="base" pagecolor="#ffffff" bordercolor="#666666" borderopacity="1.0" inkscape:pageopacity="0.0" inkscape:pageshadow="2" inkscape:zoom="1.6617221" inkscape:cx="-8.3103755" inkscape:cy="85.267876" inkscape:document-units="px" inkscape:current-layer="layer1" showgrid="false" fit-margin-top="0" fit-margin-left="0" fit-margin-right="0" fit-margin-bottom="0" inkscape:window-width="1440" inkscape:window-height="842" inkscape:window-x="-4" inkscape:window-y="-4" inkscape:window-maximized="1"/>
  <metadata id="metadata3131">
    <rdf:RDF>
      <cc:Work rdf:about="">
        <dc:format>image/svg+xml</dc:format>
        <dc:type rdf:resource="http://purl.org/dc/dcmitype/StillImage"/>
        <dc:title/>
      </cc:Work>
    </rdf:RDF>
  </metadata>
  <g inkscape:label="Capa 1" inkscape:groupmode="layer" id="layer1" transform="translate(-282,-464.36218)">
    <rect style="fill:#ff0000;fill-opacity:1;fill-rule:nonzero;stroke:url(#linearGradient3862);stroke-width:3;display:inline" id="rect3242" width="129.771" height="129.771" x="285.1145" y="467.47668" rx="17.142862" ry="17.142862" inkscape:export-filename="C:\wamp-120428\www\irobit\img\boton_chat_off.png" inkscape:export-xdpi="90" inkscape:export-ydpi="90"/>
    <rect inkscape:export-ydpi="90" inkscape:export-xdpi="90" inkscape:export-filename="C:\wamp-120428\www\irobit\img\boton_chat_off.png" ry="17.142862" rx="17.142862" y="467.47668" x="285.1145" height="129.771" width="129.771" id="rect3837" style="fill:url(#linearGradient3854);fill-opacity:1;fill-rule:nonzero;stroke:none;display:inline"/>
    <path inkscape:export-ydpi="90" inkscape:export-xdpi="90" inkscape:export-filename="E:\wamp\www\irobit\img\boton_contacto_off.png" d="m 337.05553,536.42881 c -0.0762,8.18014 4.4913,14.58493 12.2978,13.9067 7.80652,-0.67819 9.91001,-7.05764 9.92768,-14.41194 0.0176,-7.35432 -1.72262,-13.04672 -10.02949,-14.24879 -8.30685,-1.20212 -12.11971,6.57393 -12.19599,14.75403 z m 26.2031,9.54875 c -1.01829,2.57418 -1.23696,10.13529 -6.56841,12.32534 -2.25712,1.43211 -6.58974,2.1482 -9.61041,2.14818 -5.83786,2e-5 -10.58107,-2.25695 -14.22966,-6.7709 -3.64866,-4.51391 -5.47298,-10.39653 -5.47295,-17.64786 -3e-5,-7.25123 1.83279,-13.14293 5.4984,-17.67501 3.66556,-4.53201 8.4003,-6.79806 14.20421,-6.79809 3.02067,3e-5 7.35329,0.72518 9.61041,2.17536 2.25699,1.45034 3.89463,3.46256 4.91291,6.03673 -0.59401,-4.04725 3.54077,-6.98415 5.91146,-5.73494 2.37068,1.24924 2.96169,8.15633 2.96,15.92968 -10e-4,7.77338 -0.51493,14.50111 2.71496,17.5905 3.22991,3.0894 6.5718,-0.0761 8.98168,-3.72001 2.40971,-3.64374 3.6146,-8.31175 3.61469,-14.00406 -7e-5,-3.62563 -0.49222,-7.02463 -1.47643,-10.19713 -0.98434,-3.1724 -2.47775,-6.08198 -4.48016,-8.72875 -3.22445,-4.42323 -7.25493,-7.83135 -12.0914,-10.22434 -4.83661,-2.39287 -10.07198,-3.58932 -15.70609,-3.58939 -3.93717,7e-5 -7.70459,0.55298 -11.30227,1.65875 -3.59776,1.10588 -6.92395,2.72835 -9.97858,4.86742 -5.02326,3.5532 -8.93493,8.1487 -11.73502,13.78653 -2.80012,5.63793 -4.20018,11.73807 -4.20017,18.30047 -1e-5,5.40224 0.90789,10.46906 2.72374,15.20052 1.81582,4.73148 4.43774,8.91005 7.86578,12.53566 3.39404,3.55317 7.28873,6.26333 11.6841,8.13053 4.39529,1.8672 9.0876,2.80082 14.07694,2.80082 4.27646,0 8.55301,-0.85203 12.8296,-2.55607 0,0 8.64185,-4.53143 10.83167,0.78252 2.18979,5.31396 -8.31158,9.19706 -8.31158,9.19706 -5.00631,1.86722 -10.08894,2.80081 -15.24789,2.80082 -6.27908,-10e-6 -12.20174,-1.18741 -17.76798,-3.56222 -5.56632,-2.37479 -10.52165,-5.82826 -14.86604,-10.36028 -4.34444,-4.53207 -7.65365,-9.78018 -9.92768,-15.74437 -2.27402,-5.96417 -3.41104,-12.37249 -3.41103,-19.22499 -1e-5,-6.59868 1.15397,-12.88915 3.46195,-18.87152 2.30795,-5.98226 5.60021,-11.23946 9.87676,-15.77157 4.27652,-4.49572 9.25731,-7.97636 14.94241,-10.44186 5.68503,-2.46538 11.58225,-3.69809 17.69161,-3.69816 7.60268,7e-5 14.50962,1.55003 20.72085,4.64988 6.21106,3.1 11.40401,7.56861 15.5788,13.40584 2.54546,3.5532 4.47161,7.40545 5.77841,11.55675 1.30664,4.15142 1.95999,8.51127 1.96009,13.07952 -10e-5,9.82557 -2.76626,17.45752 -8.29851,22.89599 -5.53243,5.43848 -9.27162,7.44248 -14.31399,6.38927 -6.41466,-1.33982 -9.43518,-10.0563 -9.43518,-12.92262 z" id="path3032" inkscape:connector-curvature="0" sodipodi:nodetypes="zzzzzccssssccczszccccccccssccssczcssssssccccccccsc" style="font-size:80px;font-style:normal;font-variant:normal;font-weight:bold;font-stretch:normal;line-height:125%;letter-spacing:-7.25px;word-spacing:0px;opacity:0.25;fill:#000000;fill-opacity:1;stroke:#000000;stroke-width:3;display:inline;filter:url(#filter3822);font-family:DejaVu Sans;-inkscape-font-specification:DejaVu Sans Bold"/>
    <path style="font-size:80px;font-style:normal;font-variant:normal;font-weight:bold;font-stretch:normal;line-height:125%;letter-spacing:-7.25000000000000000px;word-spacing:0px;fill:url(#linearGradient3913);fill-opacity:1;stroke:none;display:inline;font-family:DejaVu Sans;-inkscape-font-specification:DejaVu Sans Bold" sodipodi:nodetypes="zzzzzccssssccczszccccccccssccssczcssssssccccccccsc" inkscape:connector-curvature="0" id="path12277" d="m 334.75464,533.0306 c -0.0762,8.18014 4.4913,14.58493 12.2978,13.9067 7.80652,-0.67819 9.91001,-7.05764 9.92768,-14.41194 0.0176,-7.35432 -1.72262,-13.04672 -10.02949,-14.24879 -8.30685,-1.20212 -12.11971,6.57393 -12.19599,14.75403 z m 26.2031,9.54875 c -1.01829,2.57418 -1.23696,10.13529 -6.56841,12.32534 -2.25712,1.43211 -6.58974,2.1482 -9.61041,2.14818 -5.83786,2e-5 -10.58107,-2.25695 -14.22966,-6.7709 -3.64866,-4.51391 -5.47298,-10.39653 -5.47295,-17.64786 -3e-5,-7.25123 1.83279,-13.14293 5.4984,-17.67501 3.66556,-4.53201 8.4003,-6.79806 14.20421,-6.79809 3.02067,3e-5 7.35329,0.72518 9.61041,2.17536 2.25699,1.45034 3.89463,3.46256 4.91291,6.03673 -0.59401,-4.04725 3.54077,-6.98415 5.91146,-5.73494 2.37068,1.24924 2.96169,8.15633 2.96,15.92968 -10e-4,7.77338 -0.51493,14.50111 2.71496,17.5905 3.22991,3.0894 6.5718,-0.0761 8.98168,-3.72001 2.40971,-3.64374 3.6146,-8.31175 3.61469,-14.00406 -7e-5,-3.62563 -0.49222,-7.02463 -1.47643,-10.19713 -0.98434,-3.1724 -2.47775,-6.08198 -4.48016,-8.72875 -3.22445,-4.42323 -7.25493,-7.83135 -12.0914,-10.22434 -4.83661,-2.39287 -10.07198,-3.58932 -15.70609,-3.58939 -3.93717,7e-5 -7.70459,0.55298 -11.30227,1.65875 -3.59776,1.10588 -6.92395,2.72835 -9.97858,4.86742 -5.02326,3.5532 -8.93493,8.1487 -11.73502,13.78653 -2.80012,5.63793 -4.20018,11.73807 -4.20017,18.30047 -10e-6,5.40224 0.90789,10.46906 2.72374,15.20052 1.81582,4.73148 4.43774,8.91005 7.86578,12.53566 3.39404,3.55317 7.28873,6.26333 11.6841,8.13053 4.39529,1.8672 9.0876,2.80082 14.07694,2.80082 4.27646,0 8.55301,-0.85203 12.8296,-2.55607 0,0 8.64185,-4.53143 10.83167,0.78252 2.18979,5.31396 -8.31158,9.19706 -8.31158,9.19706 -5.00631,1.86722 -10.08894,2.80081 -15.24789,2.80082 -6.27908,-1e-5 -12.20174,-1.18741 -17.76798,-3.56222 -5.56632,-2.37479 -10.52165,-5.82826 -14.86604,-10.36028 -4.34444,-4.53207 -7.65365,-9.78018 -9.92768,-15.74437 -2.27402,-5.96417 -3.41104,-12.37249 -3.41103,-19.22499 -10e-6,-6.59868 1.15397,-12.88915 3.46195,-18.87152 2.30795,-5.98226 5.60021,-11.23946 9.87676,-15.77157 4.27652,-4.49572 9.25731,-7.97636 14.94241,-10.44186 5.68503,-2.46538 11.58225,-3.69809 17.69161,-3.69816 7.60268,7e-5 14.50962,1.55003 20.72085,4.64988 6.21106,3.1 11.40401,7.56861 15.5788,13.40584 2.54546,3.5532 4.47161,7.40545 5.77841,11.55675 1.30664,4.15142 1.95999,8.51127 1.96009,13.07952 -1e-4,9.82557 -2.76626,17.45752 -8.29851,22.89599 -5.53243,5.43848 -9.27162,7.44248 -14.31399,6.38927 -6.41466,-1.33982 -9.43518,-10.0563 -9.43518,-12.92262 z" inkscape:export-filename="E:\wamp\www\irobit\img\boton_contacto_off.png" inkscape:export-xdpi="90" inkscape:export-ydpi="90"/>
    <path inkscape:connector-curvature="0" style="fill:url(#linearGradient3983);fill-opacity:1;fill-rule:evenodd;stroke:none;display:inline" d="m 391.18548,468.40287 -75.69801,0 c -23.75108,0 -29.37796,7.1854 -29.37796,27.14379 l 0,67.82276 c 0.6092,13.57421 2.9526,4.99289 7.41312,-10.03963 5.1841,-17.47082 22.06712,-32.74059 42.62767,-44.18439 15.69318,-8.73465 33.25971,-14.26302 65.23268,-14.84285 16.59275,-0.3009 17.45686,-26.70615 -10.1975,-25.89968 z" id="path3250" sodipodi:nodetypes="ccccsssc" inkscape:export-filename="C:\wamp-120428\www\irobit\img\boton_chat_off.png" inkscape:export-xdpi="90" inkscape:export-ydpi="90"/>
  </g>
</svg>